<?xml version="1.0" encoding="UTF-8"?>
<!DOCTYPE svg
PUBLIC "-//W3C//DTD SVG 1.1//EN"
       "http://www.w3.org/Graphics/SVG/1.1/DTD/svg11.dtd">
<svg viewBox="35 5 1120 855" width="1085px" height="850px" xmlns="http://www.w3.org/2000/svg" version="1.1">
   <line x1="640" y1="150" x2="630" y2="150" style="stroke:#0b0;stroke-width:1;"/>
   <line x1="266" y1="310" x2="256" y2="310" style="stroke:#0b0;stroke-width:1;"/>
   <line x1="630" y1="150" x2="266" y2="310" style="stroke:#0b0;stroke-width:1;"/>
   <line x1="632.5" y1="150" x2="636.03553390593" y2="153.53553390593" style="stroke:#0b0;stroke-width:2;"/>
   <line x1="632.5" y1="150" x2="636.03553390593" y2="146.46446609407" style="stroke:#0b0;stroke-width:2;"/>
   <line x1="261" y1="310" x2="264.53553390593" y2="313.53553390593" style="stroke:#0b0;stroke-width:2;"/>
   <line x1="261" y1="310" x2="264.53553390593" y2="306.46446609407" style="stroke:#0b0;stroke-width:2;"/>
   <line x1="640" y1="130" x2="630" y2="130" style="stroke:#333;stroke-width:1;"/>
   <line x1="716" y1="360" x2="706" y2="360" style="stroke:#333;stroke-width:1;"/>
   <line x1="630" y1="130" x2="716" y2="360" style="stroke:#333;stroke-width:1;"/>
   <line x1="632.5" y1="130" x2="636.03553390593" y2="133.53553390593" style="stroke:#333;stroke-width:2;"/>
   <line x1="632.5" y1="130" x2="636.03553390593" y2="126.46446609407" style="stroke:#333;stroke-width:2;"/>
   <line x1="711" y1="360" x2="714.53553390593" y2="363.53553390593" style="stroke:#333;stroke-width:2;"/>
   <line x1="711" y1="360" x2="714.53553390593" y2="356.46446609407" style="stroke:#333;stroke-width:2;"/>
   <line x1="930" y1="70" x2="920" y2="70" style="stroke:#b0b;stroke-width:1;"/>
   <line x1="856" y1="50" x2="846" y2="50" style="stroke:#b0b;stroke-width:1;"/>
   <line x1="920" y1="70" x2="856" y2="50" style="stroke:#b0b;stroke-width:1;"/>
   <line x1="922.5" y1="70" x2="926.03553390593" y2="73.535533905933" style="stroke:#b0b;stroke-width:2;"/>
   <line x1="922.5" y1="70" x2="926.03553390593" y2="66.464466094067" style="stroke:#b0b;stroke-width:2;"/>
   <line x1="851" y1="50" x2="854.53553390593" y2="53.535533905933" style="stroke:#b0b;stroke-width:2;"/>
   <line x1="851" y1="50" x2="854.53553390593" y2="46.464466094067" style="stroke:#b0b;stroke-width:2;"/>
   <line x1="930" y1="210" x2="920" y2="210" style="stroke:#0b0;stroke-width:1;"/>
   <line x1="856" y1="50" x2="846" y2="50" style="stroke:#0b0;stroke-width:1;"/>
   <line x1="920" y1="210" x2="856" y2="50" style="stroke:#0b0;stroke-width:1;"/>
   <line x1="922.5" y1="210" x2="926.03553390593" y2="213.53553390593" style="stroke:#0b0;stroke-width:2;"/>
   <line x1="922.5" y1="210" x2="926.03553390593" y2="206.46446609407" style="stroke:#0b0;stroke-width:2;"/>
   <line x1="851" y1="50" x2="854.53553390593" y2="53.535533905933" style="stroke:#0b0;stroke-width:2;"/>
   <line x1="851" y1="50" x2="854.53553390593" y2="46.464466094067" style="stroke:#0b0;stroke-width:2;"/>
   <line x1="930" y1="450" x2="920" y2="450" style="stroke:#cb0;stroke-width:1;"/>
   <line x1="920" y1="290" x2="930" y2="290" style="stroke:#cb0;stroke-width:1;"/>
   <line x1="920" y1="450" x2="920" y2="290" style="stroke:#cb0;stroke-width:1;"/>
   <line x1="922.5" y1="450" x2="926.03553390593" y2="453.53553390593" style="stroke:#cb0;stroke-width:2;"/>
   <line x1="922.5" y1="450" x2="926.03553390593" y2="446.46446609407" style="stroke:#cb0;stroke-width:2;"/>
   <line x1="925" y1="290" x2="921.46446609407" y2="293.53553390593" style="stroke:#cb0;stroke-width:2;"/>
   <line x1="925" y1="290" x2="921.46446609407" y2="286.46446609407" style="stroke:#cb0;stroke-width:2;"/>
   <line x1="930" y1="470" x2="920" y2="470" style="stroke:#b0b;stroke-width:1;"/>
   <line x1="716" y1="360" x2="706" y2="360" style="stroke:#b0b;stroke-width:1;"/>
   <line x1="920" y1="470" x2="716" y2="360" style="stroke:#b0b;stroke-width:1;"/>
   <line x1="922.5" y1="470" x2="926.03553390593" y2="473.53553390593" style="stroke:#b0b;stroke-width:2;"/>
   <line x1="922.5" y1="470" x2="926.03553390593" y2="466.46446609407" style="stroke:#b0b;stroke-width:2;"/>
   <line x1="711" y1="360" x2="714.53553390593" y2="363.53553390593" style="stroke:#b0b;stroke-width:2;"/>
   <line x1="711" y1="360" x2="714.53553390593" y2="356.46446609407" style="stroke:#b0b;stroke-width:2;"/>
   <line x1="350" y1="110" x2="340" y2="110" style="stroke:#b0b;stroke-width:1;"/>
   <line x1="266" y1="310" x2="256" y2="310" style="stroke:#b0b;stroke-width:1;"/>
   <line x1="340" y1="110" x2="266" y2="310" style="stroke:#b0b;stroke-width:1;"/>
   <line x1="342.5" y1="110" x2="346.03553390593" y2="113.53553390593" style="stroke:#b0b;stroke-width:2;"/>
   <line x1="342.5" y1="110" x2="346.03553390593" y2="106.46446609407" style="stroke:#b0b;stroke-width:2;"/>
   <line x1="261" y1="310" x2="264.53553390593" y2="313.53553390593" style="stroke:#b0b;stroke-width:2;"/>
   <line x1="261" y1="310" x2="264.53553390593" y2="306.46446609407" style="stroke:#b0b;stroke-width:2;"/>
   <line x1="556" y1="130" x2="566" y2="130" style="stroke:#b0b;stroke-width:1;"/>
   <line x1="490" y1="360" x2="500" y2="360" style="stroke:#b0b;stroke-width:1;"/>
   <line x1="566" y1="130" x2="490" y2="360" style="stroke:#b0b;stroke-width:1;"/>
   <line x1="563.5" y1="130" x2="559.96446609407" y2="133.53553390593" style="stroke:#b0b;stroke-width:2;"/>
   <line x1="563.5" y1="130" x2="559.96446609407" y2="126.46446609407" style="stroke:#b0b;stroke-width:2;"/>
   <line x1="495" y1="360" x2="491.46446609407" y2="363.53553390593" style="stroke:#b0b;stroke-width:2;"/>
   <line x1="495" y1="360" x2="491.46446609407" y2="356.46446609407" style="stroke:#b0b;stroke-width:2;"/>
   <line x1="350" y1="790" x2="340" y2="790" style="stroke:#333;stroke-width:1;"/>
   <line x1="266" y1="310" x2="256" y2="310" style="stroke:#333;stroke-width:1;"/>
   <line x1="340" y1="790" x2="266" y2="310" style="stroke:#333;stroke-width:1;"/>
   <line x1="342.5" y1="790" x2="346.03553390593" y2="793.53553390593" style="stroke:#333;stroke-width:2;"/>
   <line x1="342.5" y1="790" x2="346.03553390593" y2="786.46446609407" style="stroke:#333;stroke-width:2;"/>
   <line x1="261" y1="310" x2="264.53553390593" y2="313.53553390593" style="stroke:#333;stroke-width:2;"/>
   <line x1="261" y1="310" x2="264.53553390593" y2="306.46446609407" style="stroke:#333;stroke-width:2;"/>
   <line x1="556" y1="810" x2="566" y2="810" style="stroke:#0bf;stroke-width:1;"/>
   <line x1="490" y1="360" x2="500" y2="360" style="stroke:#0bf;stroke-width:1;"/>
   <line x1="566" y1="810" x2="490" y2="360" style="stroke:#0bf;stroke-width:1;"/>
   <line x1="563.5" y1="810" x2="559.96446609407" y2="813.53553390593" style="stroke:#0bf;stroke-width:2;"/>
   <line x1="563.5" y1="810" x2="559.96446609407" y2="806.46446609407" style="stroke:#0bf;stroke-width:2;"/>
   <line x1="495" y1="360" x2="491.46446609407" y2="363.53553390593" style="stroke:#0bf;stroke-width:2;"/>
   <line x1="495" y1="360" x2="491.46446609407" y2="356.46446609407" style="stroke:#0bf;stroke-width:2;"/>
   <line x1="50" y1="500" x2="40" y2="500" style="stroke:#c00;stroke-width:1;"/>
   <line x1="40" y1="310" x2="50" y2="310" style="stroke:#c00;stroke-width:1;"/>
   <line x1="40" y1="500" x2="40" y2="310" style="stroke:#c00;stroke-width:1;"/>
   <line x1="42.5" y1="500" x2="46.035533905933" y2="503.53553390593" style="stroke:#c00;stroke-width:2;"/>
   <line x1="42.5" y1="500" x2="46.035533905933" y2="496.46446609407" style="stroke:#c00;stroke-width:2;"/>
   <line x1="45" y1="310" x2="41.464466094067" y2="313.53553390593" style="stroke:#c00;stroke-width:2;"/>
   <line x1="45" y1="310" x2="41.464466094067" y2="306.46446609407" style="stroke:#c00;stroke-width:2;"/>
   <line x1="50" y1="520" x2="40" y2="520" style="stroke:#0b0;stroke-width:1;"/>
   <line x1="40" y1="690" x2="50" y2="690" style="stroke:#0b0;stroke-width:1;"/>
   <line x1="40" y1="520" x2="40" y2="690" style="stroke:#0b0;stroke-width:1;"/>
   <line x1="42.5" y1="520" x2="46.035533905933" y2="523.53553390593" style="stroke:#0b0;stroke-width:2;"/>
   <line x1="42.5" y1="520" x2="46.035533905933" y2="516.46446609407" style="stroke:#0b0;stroke-width:2;"/>
   <line x1="45" y1="690" x2="41.464466094067" y2="693.53553390593" style="stroke:#0b0;stroke-width:2;"/>
   <line x1="45" y1="690" x2="41.464466094067" y2="686.46446609407" style="stroke:#0b0;stroke-width:2;"/>
   <line x1="50" y1="540" x2="40" y2="540" style="stroke:#cb0;stroke-width:1;"/>
   <line x1="40" y1="690" x2="50" y2="690" style="stroke:#cb0;stroke-width:1;"/>
   <line x1="40" y1="540" x2="40" y2="690" style="stroke:#cb0;stroke-width:1;"/>
   <line x1="42.5" y1="540" x2="46.035533905933" y2="543.53553390593" style="stroke:#cb0;stroke-width:2;"/>
   <line x1="42.5" y1="540" x2="46.035533905933" y2="536.46446609407" style="stroke:#cb0;stroke-width:2;"/>
   <line x1="45" y1="690" x2="41.464466094067" y2="693.53553390593" style="stroke:#cb0;stroke-width:2;"/>
   <line x1="45" y1="690" x2="41.464466094067" y2="686.46446609407" style="stroke:#cb0;stroke-width:2;"/>
   <line x1="50" y1="560" x2="40" y2="560" style="stroke:#b0b;stroke-width:1;"/>
   <line x1="40" y1="690" x2="50" y2="690" style="stroke:#b0b;stroke-width:1;"/>
   <line x1="40" y1="560" x2="40" y2="690" style="stroke:#b0b;stroke-width:1;"/>
   <line x1="42.5" y1="560" x2="46.035533905933" y2="563.53553390593" style="stroke:#b0b;stroke-width:2;"/>
   <line x1="42.5" y1="560" x2="46.035533905933" y2="556.46446609407" style="stroke:#b0b;stroke-width:2;"/>
   <line x1="45" y1="690" x2="41.464466094067" y2="693.53553390593" style="stroke:#b0b;stroke-width:2;"/>
   <line x1="45" y1="690" x2="41.464466094067" y2="686.46446609407" style="stroke:#b0b;stroke-width:2;"/>
   <line x1="50" y1="580" x2="40" y2="580" style="stroke:#333;stroke-width:1;"/>
   <line x1="40" y1="690" x2="50" y2="690" style="stroke:#333;stroke-width:1;"/>
   <line x1="40" y1="580" x2="40" y2="690" style="stroke:#333;stroke-width:1;"/>
   <line x1="42.5" y1="580" x2="46.035533905933" y2="583.53553390593" style="stroke:#333;stroke-width:2;"/>
   <line x1="42.5" y1="580" x2="46.035533905933" y2="576.46446609407" style="stroke:#333;stroke-width:2;"/>
   <line x1="45" y1="690" x2="41.464466094067" y2="693.53553390593" style="stroke:#333;stroke-width:2;"/>
   <line x1="45" y1="690" x2="41.464466094067" y2="686.46446609407" style="stroke:#333;stroke-width:2;"/>
   <line x1="50" y1="600" x2="40" y2="600" style="stroke:#b0b;stroke-width:1;"/>
   <line x1="40" y1="690" x2="50" y2="690" style="stroke:#b0b;stroke-width:1;"/>
   <line x1="40" y1="600" x2="40" y2="690" style="stroke:#b0b;stroke-width:1;"/>
   <line x1="42.5" y1="600" x2="46.035533905933" y2="603.53553390593" style="stroke:#b0b;stroke-width:2;"/>
   <line x1="42.5" y1="600" x2="46.035533905933" y2="596.46446609407" style="stroke:#b0b;stroke-width:2;"/>
   <line x1="45" y1="690" x2="41.464466094067" y2="693.53553390593" style="stroke:#b0b;stroke-width:2;"/>
   <line x1="45" y1="690" x2="41.464466094067" y2="686.46446609407" style="stroke:#b0b;stroke-width:2;"/>
   <line x1="50" y1="620" x2="40" y2="620" style="stroke:#cb0;stroke-width:1;"/>
   <line x1="40" y1="690" x2="50" y2="690" style="stroke:#cb0;stroke-width:1;"/>
   <line x1="40" y1="620" x2="40" y2="690" style="stroke:#cb0;stroke-width:1;"/>
   <line x1="42.5" y1="620" x2="46.035533905933" y2="623.53553390593" style="stroke:#cb0;stroke-width:2;"/>
   <line x1="42.5" y1="620" x2="46.035533905933" y2="616.46446609407" style="stroke:#cb0;stroke-width:2;"/>
   <line x1="45" y1="690" x2="41.464466094067" y2="693.53553390593" style="stroke:#cb0;stroke-width:2;"/>
   <line x1="45" y1="690" x2="41.464466094067" y2="686.46446609407" style="stroke:#cb0;stroke-width:2;"/>
   <line x1="50" y1="640" x2="40" y2="640" style="stroke:#cb0;stroke-width:1;"/>
   <line x1="40" y1="690" x2="50" y2="690" style="stroke:#cb0;stroke-width:1;"/>
   <line x1="40" y1="640" x2="40" y2="690" style="stroke:#cb0;stroke-width:1;"/>
   <line x1="42.5" y1="640" x2="46.035533905933" y2="643.53553390593" style="stroke:#cb0;stroke-width:2;"/>
   <line x1="42.5" y1="640" x2="46.035533905933" y2="636.46446609407" style="stroke:#cb0;stroke-width:2;"/>
   <line x1="45" y1="690" x2="41.464466094067" y2="693.53553390593" style="stroke:#cb0;stroke-width:2;"/>
   <line x1="45" y1="690" x2="41.464466094067" y2="686.46446609407" style="stroke:#cb0;stroke-width:2;"/>
   <line x1="930" y1="590" x2="920" y2="590" style="stroke:#bbb;stroke-width:1;"/>
   <line x1="716" y1="360" x2="706" y2="360" style="stroke:#bbb;stroke-width:1;"/>
   <line x1="920" y1="590" x2="716" y2="360" style="stroke:#bbb;stroke-width:1;"/>
   <line x1="922.5" y1="590" x2="926.03553390593" y2="593.53553390593" style="stroke:#bbb;stroke-width:2;"/>
   <line x1="922.5" y1="590" x2="926.03553390593" y2="586.46446609407" style="stroke:#bbb;stroke-width:2;"/>
   <line x1="711" y1="360" x2="714.53553390593" y2="363.53553390593" style="stroke:#bbb;stroke-width:2;"/>
   <line x1="711" y1="360" x2="714.53553390593" y2="356.46446609407" style="stroke:#bbb;stroke-width:2;"/>
   <line x1="256" y1="260" x2="266" y2="260" style="stroke:#bbb;stroke-width:1;"/>
   <line x1="490" y1="360" x2="500" y2="360" style="stroke:#bbb;stroke-width:1;"/>
   <line x1="266" y1="260" x2="490" y2="360" style="stroke:#bbb;stroke-width:1;"/>
   <line x1="263.5" y1="260" x2="259.96446609407" y2="263.53553390593" style="stroke:#bbb;stroke-width:2;"/>
   <line x1="263.5" y1="260" x2="259.96446609407" y2="256.46446609407" style="stroke:#bbb;stroke-width:2;"/>
   <line x1="495" y1="360" x2="491.46446609407" y2="363.53553390593" style="stroke:#bbb;stroke-width:2;"/>
   <line x1="495" y1="360" x2="491.46446609407" y2="356.46446609407" style="stroke:#bbb;stroke-width:2;"/>
   <line x1="500" y1="420" x2="490" y2="420" style="stroke:#0b0;stroke-width:1;"/>
   <line x1="266" y1="690" x2="256" y2="690" style="stroke:#0b0;stroke-width:1;"/>
   <line x1="490" y1="420" x2="266" y2="690" style="stroke:#0b0;stroke-width:1;"/>
   <line x1="492.5" y1="420" x2="496.03553390593" y2="423.53553390593" style="stroke:#0b0;stroke-width:2;"/>
   <line x1="492.5" y1="420" x2="496.03553390593" y2="416.46446609407" style="stroke:#0b0;stroke-width:2;"/>
   <line x1="261" y1="690" x2="264.53553390593" y2="693.53553390593" style="stroke:#0b0;stroke-width:2;"/>
   <line x1="261" y1="690" x2="264.53553390593" y2="686.46446609407" style="stroke:#0b0;stroke-width:2;"/>
   <rect width="206" height="20" x="640" y="20" style="fill:#007;stroke:black;"/>
   <text width="206" height="20" x="645" y="34" style="fill:#fff;" font-family="Arial" font-size="16px"> anuncios</text>
   <rect width="206" height="20" x="640" y="40" style="fill:none;stroke:black;"/>
   <text width="206" height="20" x="645" y="54" style="fill:black;" font-family="Arial" font-size="16px">Id_Anuncio</text>
   <rect width="206" height="20" x="640" y="60" style="fill:none;stroke:black;"/>
   <text width="206" height="20" x="645" y="74" style="fill:black;" font-family="Arial" font-size="16px">Titulo</text>
   <rect width="206" height="20" x="640" y="80" style="fill:none;stroke:black;"/>
   <text width="206" height="20" x="645" y="94" style="fill:black;" font-family="Arial" font-size="16px">Descripcion</text>
   <rect width="206" height="20" x="640" y="100" style="fill:none;stroke:black;"/>
   <text width="206" height="20" x="645" y="114" style="fill:black;" font-family="Arial" font-size="16px">Fecha</text>
   <rect width="206" height="20" x="640" y="120" style="fill:none;stroke:black;"/>
   <text width="206" height="20" x="645" y="134" style="fill:black;" font-family="Arial" font-size="16px">Id_Usuario</text>
   <rect width="206" height="20" x="640" y="140" style="fill:none;stroke:black;"/>
   <text width="206" height="20" x="645" y="154" style="fill:black;" font-family="Arial" font-size="16px">Id_Organizacion</text>
   <rect width="206" height="20" x="930" y="20" style="fill:#007;stroke:black;"/>
   <text width="206" height="20" x="935" y="34" style="fill:#fff;" font-family="Arial" font-size="16px"> anuncios_fotos</text>
   <rect width="206" height="20" x="930" y="40" style="fill:none;stroke:black;"/>
   <text width="206" height="20" x="935" y="54" style="fill:black;" font-family="Arial" font-size="16px">Id_Foto</text>
   <rect width="206" height="20" x="930" y="60" style="fill:none;stroke:black;"/>
   <text width="206" height="20" x="935" y="74" style="fill:black;" font-family="Arial" font-size="16px">Id_Anuncio</text>
   <rect width="206" height="20" x="930" y="80" style="fill:none;stroke:black;"/>
   <text width="206" height="20" x="935" y="94" style="fill:black;" font-family="Arial" font-size="16px">Ubicacion_Foto</text>
   <rect width="206" height="20" x="930" y="160" style="fill:#007;stroke:black;"/>
   <text width="206" height="20" x="935" y="174" style="fill:#fff;" font-family="Arial" font-size="16px"> anuncios_videos</text>
   <rect width="206" height="20" x="930" y="180" style="fill:none;stroke:black;"/>
   <text width="206" height="20" x="935" y="194" style="fill:black;" font-family="Arial" font-size="16px">Id_Video</text>
   <rect width="206" height="20" x="930" y="200" style="fill:none;stroke:black;"/>
   <text width="206" height="20" x="935" y="214" style="fill:black;" font-family="Arial" font-size="16px">Id_Anuncio</text>
   <rect width="206" height="20" x="930" y="220" style="fill:none;stroke:black;"/>
   <text width="206" height="20" x="935" y="234" style="fill:black;" font-family="Arial" font-size="16px">Ubicacion_Video</text>
   <rect width="206" height="20" x="930" y="360" style="fill:#007;stroke:black;"/>
   <text width="206" height="20" x="935" y="374" style="fill:#fff;" font-family="Arial" font-size="16px"> archivos_municipalismo</text>
   <rect width="206" height="20" x="930" y="380" style="fill:none;stroke:black;"/>
   <text width="206" height="20" x="935" y="394" style="fill:black;" font-family="Arial" font-size="16px">Id_Archivo</text>
   <rect width="206" height="20" x="930" y="400" style="fill:none;stroke:black;"/>
   <text width="206" height="20" x="935" y="414" style="fill:black;" font-family="Arial" font-size="16px">Fecha</text>
   <rect width="206" height="20" x="930" y="420" style="fill:none;stroke:black;"/>
   <text width="206" height="20" x="935" y="434" style="fill:black;" font-family="Arial" font-size="16px">PDF</text>
   <rect width="206" height="20" x="930" y="440" style="fill:none;stroke:black;"/>
   <text width="206" height="20" x="935" y="454" style="fill:black;" font-family="Arial" font-size="16px">Id_Categoria</text>
   <rect width="206" height="20" x="930" y="460" style="fill:none;stroke:black;"/>
   <text width="206" height="20" x="935" y="474" style="fill:black;" font-family="Arial" font-size="16px">Id_Usuario</text>
   <rect width="206" height="20" x="350" y="20" style="fill:#007;stroke:black;"/>
   <text width="206" height="20" x="355" y="34" style="fill:#fff;" font-family="Arial" font-size="16px"> auditorias</text>
   <rect width="206" height="20" x="350" y="40" style="fill:none;stroke:black;"/>
   <text width="206" height="20" x="355" y="54" style="fill:black;" font-family="Arial" font-size="16px">Id_Auditoria</text>
   <rect width="206" height="20" x="350" y="60" style="fill:none;stroke:black;"/>
   <text width="206" height="20" x="355" y="74" style="fill:black;" font-family="Arial" font-size="16px">Fecha</text>
   <rect width="206" height="20" x="350" y="80" style="fill:none;stroke:black;"/>
   <text width="206" height="20" x="355" y="94" style="fill:black;" font-family="Arial" font-size="16px">PDF</text>
   <rect width="206" height="20" x="350" y="100" style="fill:none;stroke:black;"/>
   <text width="206" height="20" x="355" y="114" style="fill:black;" font-family="Arial" font-size="16px">Id_Organizacion</text>
   <rect width="206" height="20" x="350" y="120" style="fill:none;stroke:black;"/>
   <text width="206" height="20" x="355" y="134" style="fill:black;" font-family="Arial" font-size="16px">Id_Usuario</text>
   <rect width="206" height="20" x="930" y="260" style="fill:#007;stroke:black;"/>
   <text width="206" height="20" x="935" y="274" style="fill:#fff;" font-family="Arial" font-size="16px"> categorias</text>
   <rect width="206" height="20" x="930" y="280" style="fill:none;stroke:black;"/>
   <text width="206" height="20" x="935" y="294" style="fill:black;" font-family="Arial" font-size="16px">Id_Categoria</text>
   <rect width="206" height="20" x="930" y="300" style="fill:none;stroke:black;"/>
   <text width="206" height="20" x="935" y="314" style="fill:black;" font-family="Arial" font-size="16px">Nombre</text>
   <rect width="206" height="20" x="930" y="320" style="fill:none;stroke:black;"/>
   <text width="206" height="20" x="935" y="334" style="fill:black;" font-family="Arial" font-size="16px">Descripcion</text>
   <rect width="206" height="20" x="650" y="660" style="fill:#007;stroke:black;"/>
   <text width="206" height="20" x="655" y="674" style="fill:#fff;" font-family="Arial" font-size="16px"> comentarios</text>
   <rect width="206" height="20" x="650" y="680" style="fill:none;stroke:black;"/>
   <text width="206" height="20" x="655" y="694" style="fill:black;" font-family="Arial" font-size="16px">Id_Comentario</text>
   <rect width="206" height="20" x="650" y="700" style="fill:none;stroke:black;"/>
   <text width="206" height="20" x="655" y="714" style="fill:black;" font-family="Arial" font-size="16px">Nombre</text>
   <rect width="206" height="20" x="650" y="720" style="fill:none;stroke:black;"/>
   <text width="206" height="20" x="655" y="734" style="fill:black;" font-family="Arial" font-size="16px">Telefono</text>
   <rect width="206" height="20" x="650" y="740" style="fill:none;stroke:black;"/>
   <text width="206" height="20" x="655" y="754" style="fill:black;" font-family="Arial" font-size="16px">Fecha</text>
   <rect width="206" height="20" x="650" y="760" style="fill:none;stroke:black;"/>
   <text width="206" height="20" x="655" y="774" style="fill:black;" font-family="Arial" font-size="16px">Comentario</text>
   <rect width="206" height="20" x="350" y="660" style="fill:#007;stroke:black;"/>
   <text width="206" height="20" x="355" y="674" style="fill:#fff;" font-family="Arial" font-size="16px"> denuncias</text>
   <rect width="206" height="20" x="350" y="680" style="fill:none;stroke:black;"/>
   <text width="206" height="20" x="355" y="694" style="fill:black;" font-family="Arial" font-size="16px">Id_Denuncia</text>
   <rect width="206" height="20" x="350" y="700" style="fill:none;stroke:black;"/>
   <text width="206" height="20" x="355" y="714" style="fill:black;" font-family="Arial" font-size="16px">Titulo</text>
   <rect width="206" height="20" x="350" y="720" style="fill:none;stroke:black;"/>
   <text width="206" height="20" x="355" y="734" style="fill:black;" font-family="Arial" font-size="16px">Descripcion</text>
   <rect width="206" height="20" x="350" y="740" style="fill:none;stroke:black;"/>
   <text width="206" height="20" x="355" y="754" style="fill:black;" font-family="Arial" font-size="16px">Fecha</text>
   <rect width="206" height="20" x="350" y="760" style="fill:none;stroke:black;"/>
   <text width="206" height="20" x="355" y="774" style="fill:black;" font-family="Arial" font-size="16px">PDF</text>
   <rect width="206" height="20" x="350" y="780" style="fill:none;stroke:black;"/>
   <text width="206" height="20" x="355" y="794" style="fill:black;" font-family="Arial" font-size="16px">Id_Organizacion</text>
   <rect width="206" height="20" x="350" y="800" style="fill:none;stroke:black;"/>
   <text width="206" height="20" x="355" y="814" style="fill:black;" font-family="Arial" font-size="16px">Id_Usuario</text>
   <rect width="206" height="20" x="50" y="410" style="fill:#007;stroke:black;"/>
   <text width="206" height="20" x="55" y="424" style="fill:#fff;" font-family="Arial" font-size="16px"> directivas</text>
   <rect width="206" height="20" x="50" y="430" style="fill:none;stroke:black;"/>
   <text width="206" height="20" x="55" y="444" style="fill:black;" font-family="Arial" font-size="16px">Id_Directiva</text>
   <rect width="206" height="20" x="50" y="450" style="fill:none;stroke:black;"/>
   <text width="206" height="20" x="55" y="464" style="fill:black;" font-family="Arial" font-size="16px">Fecha_Inicial</text>
   <rect width="206" height="20" x="50" y="470" style="fill:none;stroke:black;"/>
   <text width="206" height="20" x="55" y="484" style="fill:black;" font-family="Arial" font-size="16px">Fecha_Final</text>
   <rect width="206" height="20" x="50" y="490" style="fill:none;stroke:black;"/>
   <text width="206" height="20" x="55" y="504" style="fill:black;" font-family="Arial" font-size="16px">Id_Organizacion</text>
   <rect width="206" height="20" x="50" y="510" style="fill:none;stroke:black;"/>
   <text width="206" height="20" x="55" y="524" style="fill:black;" font-family="Arial" font-size="16px">Presidente</text>
   <rect width="206" height="20" x="50" y="530" style="fill:none;stroke:black;"/>
   <text width="206" height="20" x="55" y="544" style="fill:black;" font-family="Arial" font-size="16px">Secretario</text>
   <rect width="206" height="20" x="50" y="550" style="fill:none;stroke:black;"/>
   <text width="206" height="20" x="55" y="564" style="fill:black;" font-family="Arial" font-size="16px">Tesorero</text>
   <rect width="206" height="20" x="50" y="570" style="fill:none;stroke:black;"/>
   <text width="206" height="20" x="55" y="584" style="fill:black;" font-family="Arial" font-size="16px">Fiscal_1</text>
   <rect width="206" height="20" x="50" y="590" style="fill:none;stroke:black;"/>
   <text width="206" height="20" x="55" y="604" style="fill:black;" font-family="Arial" font-size="16px">Fiscal_2</text>
   <rect width="206" height="20" x="50" y="610" style="fill:none;stroke:black;"/>
   <text width="206" height="20" x="55" y="624" style="fill:black;" font-family="Arial" font-size="16px">Vocal_1</text>
   <rect width="206" height="20" x="50" y="630" style="fill:none;stroke:black;"/>
   <text width="206" height="20" x="55" y="644" style="fill:black;" font-family="Arial" font-size="16px">Vocal_2</text>
   <rect width="206" height="20" x="50" y="660" style="fill:#007;stroke:black;"/>
   <text width="206" height="20" x="55" y="674" style="fill:#fff;" font-family="Arial" font-size="16px"> directivos</text>
   <rect width="206" height="20" x="50" y="680" style="fill:none;stroke:black;"/>
   <text width="206" height="20" x="55" y="694" style="fill:black;" font-family="Arial" font-size="16px">Id_Directivo</text>
   <rect width="206" height="20" x="50" y="700" style="fill:none;stroke:black;"/>
   <text width="206" height="20" x="55" y="714" style="fill:black;" font-family="Arial" font-size="16px">Nombre</text>
   <rect width="206" height="20" x="50" y="720" style="fill:none;stroke:black;"/>
   <text width="206" height="20" x="55" y="734" style="fill:black;" font-family="Arial" font-size="16px">Apellido_1</text>
   <rect width="206" height="20" x="50" y="740" style="fill:none;stroke:black;"/>
   <text width="206" height="20" x="55" y="754" style="fill:black;" font-family="Arial" font-size="16px">Apellido_2</text>
   <rect width="206" height="20" x="50" y="760" style="fill:none;stroke:black;"/>
   <text width="206" height="20" x="55" y="774" style="fill:black;" font-family="Arial" font-size="16px">Foto</text>
   <rect width="206" height="20" x="50" y="780" style="fill:none;stroke:black;"/>
   <text width="206" height="20" x="55" y="794" style="fill:black;" font-family="Arial" font-size="16px">Direccion</text>
   <rect width="206" height="20" x="50" y="800" style="fill:none;stroke:black;"/>
   <text width="206" height="20" x="55" y="814" style="fill:black;" font-family="Arial" font-size="16px">Telefono</text>
   <rect width="206" height="20" x="50" y="820" style="fill:none;stroke:black;"/>
   <text width="206" height="20" x="55" y="834" style="fill:black;" font-family="Arial" font-size="16px">Correo</text>
   <rect width="206" height="20" x="930" y="500" style="fill:#007;stroke:black;"/>
   <text width="206" height="20" x="935" y="514" style="fill:#fff;" font-family="Arial" font-size="16px"> editoriales</text>
   <rect width="206" height="20" x="930" y="520" style="fill:none;stroke:black;"/>
   <text width="206" height="20" x="935" y="534" style="fill:black;" font-family="Arial" font-size="16px">Id_Editorial</text>
   <rect width="206" height="20" x="930" y="540" style="fill:none;stroke:black;"/>
   <text width="206" height="20" x="935" y="554" style="fill:black;" font-family="Arial" font-size="16px">Fecha</text>
   <rect width="206" height="20" x="930" y="560" style="fill:none;stroke:black;"/>
   <text width="206" height="20" x="935" y="574" style="fill:black;" font-family="Arial" font-size="16px">PDF</text>
   <rect width="206" height="20" x="930" y="580" style="fill:none;stroke:black;"/>
   <text width="206" height="20" x="935" y="594" style="fill:black;" font-family="Arial" font-size="16px">Id_Usuario</text>
   <rect width="206" height="20" x="50" y="170" style="fill:#007;stroke:black;"/>
   <text width="206" height="20" x="55" y="184" style="fill:#fff;" font-family="Arial" font-size="16px"> organigramas</text>
   <rect width="206" height="20" x="50" y="190" style="fill:none;stroke:black;"/>
   <text width="206" height="20" x="55" y="204" style="fill:black;" font-family="Arial" font-size="16px">Id_Organigrama</text>
   <rect width="206" height="20" x="50" y="210" style="fill:none;stroke:black;"/>
   <text width="206" height="20" x="55" y="224" style="fill:black;" font-family="Arial" font-size="16px">Fecha</text>
   <rect width="206" height="20" x="50" y="230" style="fill:none;stroke:black;"/>
   <text width="206" height="20" x="55" y="244" style="fill:black;" font-family="Arial" font-size="16px">Foto_Organigrama</text>
   <rect width="206" height="20" x="50" y="250" style="fill:none;stroke:black;"/>
   <text width="206" height="20" x="55" y="264" style="fill:black;" font-family="Arial" font-size="16px">Id_Usuario</text>
   <rect width="206" height="20" x="50" y="280" style="fill:#007;stroke:black;"/>
   <text width="206" height="20" x="55" y="294" style="fill:#fff;" font-family="Arial" font-size="16px"> organizaciones</text>
   <rect width="206" height="20" x="50" y="300" style="fill:none;stroke:black;"/>
   <text width="206" height="20" x="55" y="314" style="fill:black;" font-family="Arial" font-size="16px">Id_Organizacion</text>
   <rect width="206" height="20" x="50" y="320" style="fill:none;stroke:black;"/>
   <text width="206" height="20" x="55" y="334" style="fill:black;" font-family="Arial" font-size="16px">Nombre</text>
   <rect width="206" height="20" x="50" y="340" style="fill:none;stroke:black;"/>
   <text width="206" height="20" x="55" y="354" style="fill:black;" font-family="Arial" font-size="16px">Descripcion</text>
   <rect width="206" height="20" x="50" y="360" style="fill:none;stroke:black;"/>
   <text width="206" height="20" x="55" y="374" style="fill:black;" font-family="Arial" font-size="16px">Historia</text>
   <rect width="206" height="20" x="50" y="380" style="fill:none;stroke:black;"/>
   <text width="206" height="20" x="55" y="394" style="fill:black;" font-family="Arial" font-size="16px">Objetivos</text>
   <rect width="206" height="20" x="50" y="20" style="fill:#007;stroke:black;"/>
   <text width="206" height="20" x="55" y="34" style="fill:#fff;" font-family="Arial" font-size="16px"> sociedad_civil_siguatepeque</text>
   <rect width="206" height="20" x="50" y="40" style="fill:none;stroke:black;"/>
   <text width="206" height="20" x="55" y="54" style="fill:black;" font-family="Arial" font-size="16px">Nombre</text>
   <rect width="206" height="20" x="50" y="60" style="fill:none;stroke:black;"/>
   <text width="206" height="20" x="55" y="74" style="fill:black;" font-family="Arial" font-size="16px">Descripcion</text>
   <rect width="206" height="20" x="50" y="80" style="fill:none;stroke:black;"/>
   <text width="206" height="20" x="55" y="94" style="fill:black;" font-family="Arial" font-size="16px">Historia</text>
   <rect width="206" height="20" x="50" y="100" style="fill:none;stroke:black;"/>
   <text width="206" height="20" x="55" y="114" style="fill:black;" font-family="Arial" font-size="16px">Mision</text>
   <rect width="206" height="20" x="50" y="120" style="fill:none;stroke:black;"/>
   <text width="206" height="20" x="55" y="134" style="fill:black;" font-family="Arial" font-size="16px">Vision</text>
   <rect width="206" height="20" x="50" y="140" style="fill:none;stroke:black;"/>
   <text width="206" height="20" x="55" y="154" style="fill:black;" font-family="Arial" font-size="16px">Objetivos</text>
   <rect width="206" height="20" x="500" y="330" style="fill:#007;stroke:black;"/>
   <text width="206" height="20" x="505" y="344" style="fill:#fff;" font-family="Arial" font-size="16px"> usuarios</text>
   <rect width="206" height="20" x="500" y="350" style="fill:none;stroke:black;"/>
   <text width="206" height="20" x="505" y="364" style="fill:black;" font-family="Arial" font-size="16px">Id_Usuario</text>
   <rect width="206" height="20" x="500" y="370" style="fill:none;stroke:black;"/>
   <text width="206" height="20" x="505" y="384" style="fill:black;" font-family="Arial" font-size="16px">Clave</text>
   <rect width="206" height="20" x="500" y="390" style="fill:none;stroke:black;"/>
   <text width="206" height="20" x="505" y="404" style="fill:black;" font-family="Arial" font-size="16px">Estado</text>
   <rect width="206" height="20" x="500" y="410" style="fill:none;stroke:black;"/>
   <text width="206" height="20" x="505" y="424" style="fill:black;" font-family="Arial" font-size="16px">Id_Directivo</text>
</svg>
